:FULLY-SPECIFIED
:FORCE-ALL-JOINTS-BE-3DOF
:DEGREES
170
root 6.49692 16.0668 -25.663 3.90943 28.9482 1.60486
lfemur -24.5454 30.6116 -15.892
ltibia 40.4515 -0 0
lfoot -8.3543 9.47896 0.160643
ltoes 15.225 -0 0
rfemur -21.0513 -3.77028 -5.28955
rtibia 60.433 -0 0
rfoot 6.99239 -24.4773 -0.411184
rtoes 42.889 -0 0
lowerback 1.32274 -4.93249 -1.39843
upperback 0.0391294 -6.60526 -2.52384
thorax -0.827456 -3.3026 -1.66088
lowerneck -9.57278 -7.16802 -1.52755
upperneck 1.78714 -9.6267 5.25023
head 2.6047 -4.63192 1.44341
lclavicle 4.67641e-14 -7.95139e-15 0
lhumerus -49.8016 -41.4031 115.353
lradius 52.3729 -0 0
lwrist 15.5445 0 0
lhand 37.3033 28.5624 0.00399636
lfingers 7.12502 -0 0
lthumb 60.121 42.1875 -0.00252035
rclavicle 4.67641e-14 -7.95139e-15 0
rhumerus -48.9533 -11.9086 -78.6156
rradius 90.7794 -0 0
rwrist -5.17587 0 0
rhand -40.0265 -51.1704 1.30883
rfingers 7.12502 -0 0
rthumb -13.0937 -80.1139 1.49565
171
root 6.43394 16.0419 -25.6445 4.07736 27.8855 1.78779
lfemur -22.7369 29.0191 -14.3294
ltibia 38.8053 -0 0
lfoot -8.91386 7.86932 0.305633
ltoes 17.1072 -0 0
rfemur -21.04 -4.19397 -5.50235
rtibia 59.5629 -0 0
rfoot 5.33558 -23.1054 -0.782969
rtoes 43.4333 -0 0
lowerback 1.06745 -4.81726 -1.38076
upperback 0.0171269 -6.44083 -2.72947
thorax -0.720202 -3.22494 -1.89991
lowerneck -9.73456 -6.91076 -1.33059
upperneck 1.88957 -9.30839 5.19881
head 2.65138 -4.46889 1.4105
lclavicle 4.67641e-14 -7.95139e-15 0
lhumerus -50.0307 -41.4202 115.207
lradius 52.468 -0 0
lwrist 15.7738 0 0
lhand 37.5017 28.6777 0.00759327
lfingers 7.12502 -0 0
lthumb 60.2869 42.1005 -0.00478875
rclavicle 4.67641e-14 -7.95139e-15 0
rhumerus -49.3999 -9.00601 -77.6544
rradius 92.396 -0 0
rwrist -5.86241 0 0
rhand -36.7658 -49.1564 2.50585
rfingers 7.12502 -0 0
rthumb -10.0339 -77.6856 2.86498
172
root 6.37096 16.017 -25.6261 4.23989 26.8224 1.96547
lfemur -21.0051 27.3856 -12.8476
ltibia 37.159 -0 0
lfoot -9.47729 6.25831 0.434841
ltoes 18.9895 -0 0
rfemur -21.0271 -4.61762 -5.71536
rtibia 58.6928 -0 0
rfoot 3.67017 -21.7232 -1.11483
rtoes 43.9777 -0 0
lowerback 0.812242 -4.70195 -1.36362
upperback -0.00546222 -6.27647 -2.9351
thorax -0.613282 -3.14684 -2.13877
lowerneck -9.89536 -6.65296 -1.13447
upperneck 1.99161 -8.99 5.14802
head 2.69796 -4.30583 1.37773
lclavicle 4.67641e-14 -7.95139e-15 0
lhumerus -50.2598 -41.4377 115.06
lradius 52.5632 -0 0
lwrist 16.0031 0 0
lhand 37.7001 28.7931 0.0107907
lfingers 7.12502 -0 0
lthumb 60.4529 42.0135 -0.00680516
rclavicle 4.67641e-14 -7.95139e-15 0
rhumerus -49.7945 -6.09655 -76.7224
rradius 94.0125 -0 0
rwrist -6.54895 0 0
rhand -33.4615 -47.0752 3.58564
rfingers 7.12502 -0 0
rthumb -6.91452 -75.1841 4.10152
173
root 6.30797 15.9921 -25.6076 4.39727 25.7588 2.13819
lfemur -19.3455 25.7142 -11.4423
ltibia 35.5128 -0 0
lfoot -10.0441 4.64608 0.548152
ltoes 20.8717 -0 0
rfemur -21.0126 -5.04122 -5.92859
rtibia 57.8227 -0 0
rfoot 1.99705 -20.3318 -1.40629
rtoes 44.522 -0 0
lowerback 0.557108 -4.58656 -1.34699
upperback -0.0286374 -6.11219 -3.14072
thorax -0.506696 -3.06829 -2.37747
lowerneck -10.0552 -6.39461 -0.939175
upperneck 2.09328 -8.67151 5.09785
head 2.74443 -4.14275 1.34509
lclavicle 4.67641e-14 -7.95139e-15 0
lhumerus -50.4889 -41.4557 114.914
lradius 52.6583 -0 0
lwrist 16.2324 0 0
lhand 37.8985 28.9085 0.0135885
lfingers 7.12502 -0 0
lthumb 60.6189 41.9265 -0.00856957
rclavicle 4.67641e-14 -7.95139e-15 0
rhumerus -50.14 -3.18118 -75.8143
rradius 95.6291 -0 0
rwrist -7.2355 0 0
rhand -30.116 -44.9325 4.54308
rfingers 7.12502 -0 0
rthumb -3.7388 -72.6146 5.19909
174
root 6.24499 15.9672 -25.5892 4.54976 24.6948 2.30619
lfemur -17.7537 24.0078 -10.1098
ltibia 33.8666 -0 0
lfoot -10.614 3.03278 0.645465
ltoes 22.7539 -0 0
rfemur -20.9966 -5.46477 -6.14208
rtibia 56.9526 -0 0
rfoot 0.317126 -18.9322 -1.65693
rtoes 45.0664 -0 0
lowerback 0.302048 -4.47111 -1.33088
upperback -0.0523981 -5.948 -3.34635
thorax -0.400447 -2.9893 -2.61601
lowerneck -10.214 -6.13572 -0.744705
upperneck 2.19459 -8.35294 5.04829
head 2.7908 -3.97964 1.3126
lclavicle 4.67641e-14 -7.95139e-15 0
lhumerus -50.718 -41.474 114.768
lradius 52.7534 -0 0
lwrist 16.4617 0 0
lhand 38.0969 29.0239 0.0159867
lfingers 7.12502 -0 0
lthumb 60.7848 41.8395 -0.010082
rclavicle 4.67641e-14 -7.95139e-15 0
rhumerus -50.4388 -0.260771 -74.9252
rradius 97.2457 -0 0
rwrist -7.92204 0 0
rhand -26.7323 -42.7344 5.37342
rfingers 7.12502 -0 0
rthumb -0.511181 -69.9834 6.15189
175
root 6.18201 15.9424 -25.5707 4.69757 23.6304 2.4697
lfemur -16.2256 22.2691 -8.8459
ltibia 32.2204 -0 0
lfoot -11.1863 1.41857 0.726694
ltoes 24.6361 -0 0
rfemur -20.9789 -5.88825 -6.35584
rtibia 56.0825 -0 0
rfoot -1.36863 -17.5258 -1.86636
rtoes 45.6107 -0 0
lowerback 0.047061 -4.35558 -1.31529
upperback -0.076744 -5.78389 -3.55199
thorax -0.294536 -2.90986 -2.85438
lowerneck -10.372 -5.8763 -0.551051
upperneck 2.29553 -8.03429 4.99933
head 2.83707 -3.81651 1.28025
lclavicle 4.67641e-14 -7.95139e-15 0
lhumerus -50.9471 -41.4929 114.622
lradius 52.8485 -0 0
lwrist 16.6909 0 0
lhand 38.2953 29.1393 0.0179853
lfingers 7.12502 -0 0
lthumb 60.9508 41.7525 -0.0113423
rclavicle 4.67641e-14 -7.95139e-15 0
rhumerus -50.6924 2.66389 -74.0503
rradius 98.8623 -0 0
rwrist -8.60858 0 0
rhand -23.3146 -40.488 6.07238
rfingers 7.12502 -0 0
rthumb 2.76275 -67.2977 6.95466
176
root 6.11903 15.9175 -25.5523 4.84092 22.5656 2.62895
lfemur -14.7569 20.5006 -7.64702
ltibia 30.5741 -0 0
lfoot -11.7607 -0.19641 0.791764
ltoes 26.5183 -0 0
rfemur -20.9596 -6.31166 -6.56991
rtibia 55.2124 -0 0
rfoot -3.0592 -16.1136 -2.03429
rtoes 46.1551 -0 0
lowerback -0.207856 -4.23999 -1.30022
upperback -0.101675 -5.61987 -3.75764
thorax -0.188964 -2.82999 -3.09259
lowerneck -10.5289 -5.61635 -0.358204
upperneck 2.39613 -7.71555 4.95098
head 2.88323 -3.65335 1.24803
lclavicle 4.67641e-14 -7.95139e-15 0
lhumerus -51.1762 -41.5121 114.476
lradius 52.9436 -0 0
lwrist 16.9202 0 0
lhand 38.4937 29.2548 0.0195842
lfingers 7.12502 -0 0
lthumb 61.1168 41.6655 -0.0123506
rclavicle 4.67641e-14 -7.95139e-15 0
rhumerus -50.9022 5.59205 -73.1853
rradius 100.479 -0 0
rwrist -9.29512 0 0
rhand -19.8678 -38.2009 6.63626
rfingers 7.12502 -0 0
rthumb 6.07628 -64.5659 7.60278
177
root 6.05605 15.8926 -25.5338 4.98002 21.5005 2.78414
lfemur -13.3439 18.7046 -6.50959
ltibia 28.9279 -0 0
lfoot -12.3367 -1.81198 0.840618
ltoes 28.4006 -0 0
rfemur -20.9388 -6.735 -6.7843
rtibia 54.3423 -0 0
rfoot -4.75356 -14.6969 -2.16047
rtoes 46.6995 -0 0
lowerback -0.462706 -4.12433 -1.28566
upperback -0.12719 -5.45594 -3.96331
thorax -0.083732 -2.74968 -3.33063
lowerneck -10.6849 -5.35588 -0.166157
upperneck 2.49637 -7.39672 4.90324
head 2.9293 -3.49016 1.21596
lclavicle 4.67641e-14 -7.95139e-15 0
lhumerus -51.4053 -41.5318 114.33
lradius 53.0388 -0 0
lwrist 17.1495 0 0
lhand 38.6921 29.3702 0.0207834
lfingers 7.12502 -0 0
lthumb 61.2828 41.5785 -0.0131068
rclavicle 4.67641e-14 -7.95139e-15 0
rhumerus -51.0686 8.52304 -72.3256
rradius 102.095 -0 0
rwrist -9.98166 0 0
rhand -16.3975 -35.8814 7.06196
rfingers 7.12502 -0 0
rthumb 9.42177 -61.7971 8.0924
178
root 5.99307 15.8677 -25.5154 5.11505 20.435 2.93547
lfemur -11.9825 16.8832 -5.43023
ltibia 27.2817 -0 0
lfoot -12.9139 -3.42798 0.873212
ltoes 30.2828 -0 0
rfemur -20.9163 -7.15826 -6.99903
rtibia 53.4722 -0 0
rfoot -6.45065 -13.277 -2.24469
rtoes 47.2438 -0 0
lowerback -0.717488 -4.0086 -1.27163
upperback -0.153288 -5.29211 -4.16899
thorax 0.0211577 -2.66894 -3.56851
lowerneck -10.84 -5.09489 0.0250971
upperneck 2.59628 -7.07781 4.85608
head 2.97526 -3.32695 1.18402
lclavicle 4.67641e-14 -7.95139e-15 0
lhumerus -51.6344 -41.552 114.185
lradius 53.1339 -0 0
lwrist 17.3788 0 0
lhand 38.8905 29.4856 0.0215829
lfingers 7.12502 -0 0
lthumb 61.4487 41.4915 -0.013611
rclavicle 4.67641e-14 -7.95139e-15 0
rhumerus -51.1916 11.4562 -71.4668
rradius 103.712 -0 0
rwrist -10.6682 0 0
rhand -12.9099 -33.5383 7.34711
rfingers 7.12502 -0 0
rthumb 12.7907 -59.0012 8.42052
179
root 5.93009 15.8428 -25.4969 5.24619 19.3692 3.08312
lfemur -10.6694 15.0383 -4.4058
ltibia 25.6355 -0 0
lfoot -13.4918 -5.04423 0.889516
ltoes 32.165 -0 0
rfemur -20.8922 -7.58143 -7.21414
rtibia 52.6021 -0 0
rfoot -8.14937 -11.8552 -2.28683
rtoes 47.7882 -0 0
lowerback -0.972208 -3.89282 -1.25811
upperback -0.179971 -5.12836 -4.37469
thorax 0.125704 -2.58776 -3.80623
lowerneck -10.9941 -4.83339 0.215566
upperneck 2.69586 -6.75883 4.80952
head 3.02113 -3.16372 1.15221
lclavicle 4.67641e-14 -7.95139e-15 0
lhumerus -51.8635 -41.5725 114.039
lradius 53.229 -0 0
lwrist 17.6081 0 0
lhand 39.0889 29.601 0.0219826
lfingers 7.12502 -0 0
lthumb 61.6147 41.4045 -0.0138631
rclavicle 4.67641e-14 -7.95139e-15 0
rhumerus -51.2707 14.3908 -70.6044
rradius 105.329 -0 0
rwrist -11.3547 0 0
rhand -9.41186 -31.181 7.4901
rfingers 7.12502 -0 0
rthumb 16.174 -56.1889 8.5851
180
root 5.8671 15.8179 -25.4785 5.37362 18.3031 3.22727
lfemur -9.40094 13.1717 -3.43335
ltibia 23.9892 -0 0
lfoot -14.0699 -6.66057 0.889516
ltoes 34.0472 -0 0
rfemur -20.8664 -8.00451 -7.42965
rtibia 51.732 -0 0
rfoot -9.84865 -10.4328 -2.28683
rtoes 48.3325 -0 0
lowerback -1.22686 -3.77697 -1.24511
upperback -0.207236 -4.96472 -4.58042
thorax 0.229906 -2.50615 -4.04378
lowerneck -11.1473 -4.57138 0.405257
upperneck 2.79511 -6.43976 4.76355
head 3.0669 -3.00045 1.12054
lclavicle 4.67641e-14 -7.95139e-15 0
lhumerus -52.0926 -41.5935 113.893
lradius 53.3241 -0 0
lwrist 17.8374 0 0
lhand 39.2874 29.7165 0.0219826
lfingers 7.12502 -0 0
lthumb 61.7807 41.3174 -0.0138631
rclavicle 4.67641e-14 -7.95139e-15 0
rhumerus -51.3047 17.3262 -69.7335
rradius 106.945 -0 0
rwrist -12.0413 0 0
rhand -5.91024 -28.8189 7.4901
rfingers 7.12502 -0 0
rthumb 19.562 -53.3711 8.5851
